<mxfile host="app.diagrams.net" agent="Mozilla/5.0 (Windows NT 10.0; Win64; x64) AppleWebKit/537.36 (KHTML, like Gecko) Chrome/130.0.0.0 Safari/537.36" version="24.8.3">
  <diagram name="Page-1" id="2YBvvXClWsGukQMizWep">
    <mxGraphModel dx="1221" dy="638" grid="1" gridSize="10" guides="1" tooltips="1" connect="1" arrows="1" fold="1" page="1" pageScale="1" pageWidth="850" pageHeight="1100" math="0" shadow="0">
      <root>
        <mxCell id="0" />
        <mxCell id="1" parent="0" />
        <mxCell id="swFdeL_j1G5qAMvcgTBI-7" value=":User" style="rounded=0;whiteSpace=wrap;html=1;" parent="1" vertex="1">
          <mxGeometry x="60" y="40" width="90" height="50" as="geometry" />
        </mxCell>
        <mxCell id="swFdeL_j1G5qAMvcgTBI-8" value="" style="endArrow=none;dashed=1;html=1;dashPattern=1 3;strokeWidth=2;rounded=0;entryX=0.5;entryY=1;entryDx=0;entryDy=0;" parent="1" source="swFdeL_j1G5qAMvcgTBI-9" target="swFdeL_j1G5qAMvcgTBI-7" edge="1">
          <mxGeometry width="50" height="50" relative="1" as="geometry">
            <mxPoint x="105" y="410" as="sourcePoint" />
            <mxPoint x="450" y="270" as="targetPoint" />
          </mxGeometry>
        </mxCell>
        <mxCell id="swFdeL_j1G5qAMvcgTBI-10" value="" style="endArrow=none;dashed=1;html=1;dashPattern=1 3;strokeWidth=2;rounded=0;entryX=0.5;entryY=1;entryDx=0;entryDy=0;" parent="1" target="swFdeL_j1G5qAMvcgTBI-9" edge="1">
          <mxGeometry width="50" height="50" relative="1" as="geometry">
            <mxPoint x="105" y="410" as="sourcePoint" />
            <mxPoint x="105" y="90" as="targetPoint" />
          </mxGeometry>
        </mxCell>
        <mxCell id="swFdeL_j1G5qAMvcgTBI-9" value="" style="rounded=0;whiteSpace=wrap;html=1;" parent="1" vertex="1">
          <mxGeometry x="100" y="140" width="10" height="330" as="geometry" />
        </mxCell>
        <mxCell id="swFdeL_j1G5qAMvcgTBI-11" value=":HealthMetrics" style="rounded=0;whiteSpace=wrap;html=1;" parent="1" vertex="1">
          <mxGeometry x="220" y="40" width="90" height="50" as="geometry" />
        </mxCell>
        <mxCell id="swFdeL_j1G5qAMvcgTBI-12" value="" style="endArrow=none;dashed=1;html=1;dashPattern=1 3;strokeWidth=2;rounded=0;entryX=0.5;entryY=1;entryDx=0;entryDy=0;" parent="1" source="swFdeL_j1G5qAMvcgTBI-14" target="swFdeL_j1G5qAMvcgTBI-11" edge="1">
          <mxGeometry width="50" height="50" relative="1" as="geometry">
            <mxPoint x="265" y="410" as="sourcePoint" />
            <mxPoint x="610" y="270" as="targetPoint" />
          </mxGeometry>
        </mxCell>
        <mxCell id="swFdeL_j1G5qAMvcgTBI-13" value="" style="endArrow=none;dashed=1;html=1;dashPattern=1 3;strokeWidth=2;rounded=0;entryX=0.5;entryY=1;entryDx=0;entryDy=0;" parent="1" target="swFdeL_j1G5qAMvcgTBI-14" edge="1">
          <mxGeometry width="50" height="50" relative="1" as="geometry">
            <mxPoint x="265" y="410" as="sourcePoint" />
            <mxPoint x="265" y="90" as="targetPoint" />
          </mxGeometry>
        </mxCell>
        <mxCell id="swFdeL_j1G5qAMvcgTBI-14" value="" style="rounded=0;whiteSpace=wrap;html=1;" parent="1" vertex="1">
          <mxGeometry x="260" y="200" width="10" height="220" as="geometry" />
        </mxCell>
        <mxCell id="swFdeL_j1G5qAMvcgTBI-15" value=":Model" style="rounded=0;whiteSpace=wrap;html=1;" parent="1" vertex="1">
          <mxGeometry x="390" y="40" width="90" height="50" as="geometry" />
        </mxCell>
        <mxCell id="swFdeL_j1G5qAMvcgTBI-16" value="" style="endArrow=none;dashed=1;html=1;dashPattern=1 3;strokeWidth=2;rounded=0;entryX=0.5;entryY=1;entryDx=0;entryDy=0;" parent="1" source="swFdeL_j1G5qAMvcgTBI-18" target="swFdeL_j1G5qAMvcgTBI-15" edge="1">
          <mxGeometry width="50" height="50" relative="1" as="geometry">
            <mxPoint x="435" y="410" as="sourcePoint" />
            <mxPoint x="780" y="270" as="targetPoint" />
          </mxGeometry>
        </mxCell>
        <mxCell id="swFdeL_j1G5qAMvcgTBI-17" value="" style="endArrow=none;dashed=1;html=1;dashPattern=1 3;strokeWidth=2;rounded=0;entryX=0.5;entryY=1;entryDx=0;entryDy=0;" parent="1" target="swFdeL_j1G5qAMvcgTBI-18" edge="1">
          <mxGeometry width="50" height="50" relative="1" as="geometry">
            <mxPoint x="435" y="410" as="sourcePoint" />
            <mxPoint x="435" y="90" as="targetPoint" />
          </mxGeometry>
        </mxCell>
        <mxCell id="swFdeL_j1G5qAMvcgTBI-18" value="" style="rounded=0;whiteSpace=wrap;html=1;" parent="1" vertex="1">
          <mxGeometry x="430" y="220" width="10" height="170" as="geometry" />
        </mxCell>
        <mxCell id="swFdeL_j1G5qAMvcgTBI-19" value=":Prediction" style="rounded=0;whiteSpace=wrap;html=1;" parent="1" vertex="1">
          <mxGeometry x="570" y="40" width="90" height="50" as="geometry" />
        </mxCell>
        <mxCell id="swFdeL_j1G5qAMvcgTBI-20" value="" style="endArrow=none;dashed=1;html=1;dashPattern=1 3;strokeWidth=2;rounded=0;entryX=0.5;entryY=1;entryDx=0;entryDy=0;" parent="1" source="swFdeL_j1G5qAMvcgTBI-22" target="swFdeL_j1G5qAMvcgTBI-19" edge="1">
          <mxGeometry width="50" height="50" relative="1" as="geometry">
            <mxPoint x="615" y="410" as="sourcePoint" />
            <mxPoint x="960" y="270" as="targetPoint" />
          </mxGeometry>
        </mxCell>
        <mxCell id="swFdeL_j1G5qAMvcgTBI-21" value="" style="endArrow=none;dashed=1;html=1;dashPattern=1 3;strokeWidth=2;rounded=0;entryX=0.5;entryY=1;entryDx=0;entryDy=0;" parent="1" target="swFdeL_j1G5qAMvcgTBI-22" edge="1">
          <mxGeometry width="50" height="50" relative="1" as="geometry">
            <mxPoint x="615" y="410" as="sourcePoint" />
            <mxPoint x="615" y="90" as="targetPoint" />
          </mxGeometry>
        </mxCell>
        <mxCell id="swFdeL_j1G5qAMvcgTBI-22" value="" style="rounded=0;whiteSpace=wrap;html=1;" parent="1" vertex="1">
          <mxGeometry x="610" y="240" width="10" height="200" as="geometry" />
        </mxCell>
        <mxCell id="swFdeL_j1G5qAMvcgTBI-23" value=":Tips" style="rounded=0;whiteSpace=wrap;html=1;" parent="1" vertex="1">
          <mxGeometry x="710" y="40" width="120" height="50" as="geometry" />
        </mxCell>
        <mxCell id="swFdeL_j1G5qAMvcgTBI-24" value="" style="endArrow=none;dashed=1;html=1;dashPattern=1 3;strokeWidth=2;rounded=0;entryX=0.5;entryY=1;entryDx=0;entryDy=0;" parent="1" source="swFdeL_j1G5qAMvcgTBI-26" target="swFdeL_j1G5qAMvcgTBI-23" edge="1">
          <mxGeometry width="50" height="50" relative="1" as="geometry">
            <mxPoint x="785" y="410" as="sourcePoint" />
            <mxPoint x="1130" y="270" as="targetPoint" />
          </mxGeometry>
        </mxCell>
        <mxCell id="swFdeL_j1G5qAMvcgTBI-25" value="" style="endArrow=none;dashed=1;html=1;dashPattern=1 3;strokeWidth=2;rounded=0;entryX=0.5;entryY=1;entryDx=0;entryDy=0;" parent="1" target="swFdeL_j1G5qAMvcgTBI-26" edge="1">
          <mxGeometry width="50" height="50" relative="1" as="geometry">
            <mxPoint x="770" y="380" as="sourcePoint" />
            <mxPoint x="785" y="90" as="targetPoint" />
          </mxGeometry>
        </mxCell>
        <mxCell id="swFdeL_j1G5qAMvcgTBI-26" value="" style="rounded=0;whiteSpace=wrap;html=1;" parent="1" vertex="1">
          <mxGeometry x="765" y="275" width="10" height="205" as="geometry" />
        </mxCell>
        <mxCell id="swFdeL_j1G5qAMvcgTBI-27" value="" style="endArrow=classic;html=1;rounded=0;exitX=0.92;exitY=0.212;exitDx=0;exitDy=0;entryX=-0.04;entryY=0.041;entryDx=0;entryDy=0;entryPerimeter=0;exitPerimeter=0;" parent="1" source="swFdeL_j1G5qAMvcgTBI-9" target="swFdeL_j1G5qAMvcgTBI-14" edge="1">
          <mxGeometry width="50" height="50" relative="1" as="geometry">
            <mxPoint x="400" y="320" as="sourcePoint" />
            <mxPoint x="450" y="270" as="targetPoint" />
          </mxGeometry>
        </mxCell>
        <mxCell id="swFdeL_j1G5qAMvcgTBI-28" value="" style="endArrow=classic;html=1;rounded=0;exitX=0.92;exitY=0.131;exitDx=0;exitDy=0;entryX=0.32;entryY=0.061;entryDx=0;entryDy=0;entryPerimeter=0;exitPerimeter=0;" parent="1" source="swFdeL_j1G5qAMvcgTBI-14" target="swFdeL_j1G5qAMvcgTBI-18" edge="1">
          <mxGeometry width="50" height="50" relative="1" as="geometry">
            <mxPoint x="270" y="210" as="sourcePoint" />
            <mxPoint x="429" y="208" as="targetPoint" />
          </mxGeometry>
        </mxCell>
        <mxCell id="swFdeL_j1G5qAMvcgTBI-29" value="" style="endArrow=classic;html=1;rounded=0;exitX=1.2;exitY=0.213;exitDx=0;exitDy=0;entryX=-0.08;entryY=0.087;entryDx=0;entryDy=0;entryPerimeter=0;exitPerimeter=0;" parent="1" source="swFdeL_j1G5qAMvcgTBI-18" target="swFdeL_j1G5qAMvcgTBI-22" edge="1">
          <mxGeometry width="50" height="50" relative="1" as="geometry">
            <mxPoint x="450" y="249.5" as="sourcePoint" />
            <mxPoint x="613" y="249.5" as="targetPoint" />
          </mxGeometry>
        </mxCell>
        <mxCell id="swFdeL_j1G5qAMvcgTBI-30" value="" style="endArrow=classic;html=1;rounded=0;entryX=0.02;entryY=0.076;entryDx=0;entryDy=0;entryPerimeter=0;" parent="1" target="swFdeL_j1G5qAMvcgTBI-26" edge="1">
          <mxGeometry width="50" height="50" relative="1" as="geometry">
            <mxPoint x="620" y="290" as="sourcePoint" />
            <mxPoint x="760" y="290" as="targetPoint" />
          </mxGeometry>
        </mxCell>
        <mxCell id="swFdeL_j1G5qAMvcgTBI-31" value="" style="endArrow=none;dashed=1;html=1;dashPattern=1 3;strokeWidth=2;rounded=0;exitX=0.5;exitY=1;exitDx=0;exitDy=0;" parent="1" source="swFdeL_j1G5qAMvcgTBI-18" edge="1">
          <mxGeometry width="50" height="50" relative="1" as="geometry">
            <mxPoint x="400" y="320" as="sourcePoint" />
            <mxPoint x="435" y="440" as="targetPoint" />
          </mxGeometry>
        </mxCell>
        <mxCell id="swFdeL_j1G5qAMvcgTBI-32" value="" style="endArrow=none;dashed=1;html=1;dashPattern=1 3;strokeWidth=2;rounded=0;exitX=0.5;exitY=1;exitDx=0;exitDy=0;" parent="1" source="swFdeL_j1G5qAMvcgTBI-14" edge="1">
          <mxGeometry width="50" height="50" relative="1" as="geometry">
            <mxPoint x="445" y="420" as="sourcePoint" />
            <mxPoint x="265" y="490" as="targetPoint" />
          </mxGeometry>
        </mxCell>
        <mxCell id="swFdeL_j1G5qAMvcgTBI-34" value="" style="endArrow=none;dashed=1;html=1;dashPattern=1 3;strokeWidth=2;rounded=0;exitX=0.5;exitY=1;exitDx=0;exitDy=0;" parent="1" source="swFdeL_j1G5qAMvcgTBI-9" edge="1">
          <mxGeometry width="50" height="50" relative="1" as="geometry">
            <mxPoint x="400" y="320" as="sourcePoint" />
            <mxPoint x="105" y="520" as="targetPoint" />
          </mxGeometry>
        </mxCell>
        <mxCell id="swFdeL_j1G5qAMvcgTBI-36" value="return" style="html=1;verticalAlign=bottom;endArrow=open;dashed=1;endSize=8;curved=0;rounded=0;entryX=1.4;entryY=0.873;entryDx=0;entryDy=0;entryPerimeter=0;" parent="1" edge="1">
          <mxGeometry relative="1" as="geometry">
            <mxPoint x="760.5" y="471.91" as="sourcePoint" />
            <mxPoint x="109.5" y="469.99999999999994" as="targetPoint" />
          </mxGeometry>
        </mxCell>
        <mxCell id="swFdeL_j1G5qAMvcgTBI-37" value="Tips" style="text;html=1;align=center;verticalAlign=middle;resizable=0;points=[];autosize=1;strokeColor=none;fillColor=none;" parent="1" vertex="1">
          <mxGeometry x="410" y="470" width="50" height="30" as="geometry" />
        </mxCell>
        <mxCell id="swFdeL_j1G5qAMvcgTBI-38" value="enterHealthMetrics()" style="text;html=1;align=center;verticalAlign=middle;resizable=0;points=[];autosize=1;strokeColor=none;fillColor=none;" parent="1" vertex="1">
          <mxGeometry x="110" y="180" width="130" height="30" as="geometry" />
        </mxCell>
        <mxCell id="swFdeL_j1G5qAMvcgTBI-39" value="inputMetrics()" style="text;html=1;align=center;verticalAlign=middle;resizable=0;points=[];autosize=1;strokeColor=none;fillColor=none;" parent="1" vertex="1">
          <mxGeometry x="300" y="200" width="100" height="30" as="geometry" />
        </mxCell>
        <mxCell id="swFdeL_j1G5qAMvcgTBI-40" value="predict()" style="text;html=1;align=center;verticalAlign=middle;resizable=0;points=[];autosize=1;strokeColor=none;fillColor=none;" parent="1" vertex="1">
          <mxGeometry x="495" y="230" width="70" height="30" as="geometry" />
        </mxCell>
        <mxCell id="swFdeL_j1G5qAMvcgTBI-41" value="healthIssue()" style="text;html=1;align=center;verticalAlign=middle;resizable=0;points=[];autosize=1;strokeColor=none;fillColor=none;" parent="1" vertex="1">
          <mxGeometry x="645" y="260" width="90" height="30" as="geometry" />
        </mxCell>
        <mxCell id="swFdeL_j1G5qAMvcgTBI-42" value="return" style="html=1;verticalAlign=bottom;endArrow=open;dashed=1;endSize=8;curved=0;rounded=0;" parent="1" edge="1">
          <mxGeometry relative="1" as="geometry">
            <mxPoint x="610" y="431.91" as="sourcePoint" />
            <mxPoint x="110" y="430" as="targetPoint" />
          </mxGeometry>
        </mxCell>
        <mxCell id="swFdeL_j1G5qAMvcgTBI-43" value="prediction" style="text;html=1;align=center;verticalAlign=middle;resizable=0;points=[];autosize=1;strokeColor=none;fillColor=none;" parent="1" vertex="1">
          <mxGeometry x="310" y="430" width="80" height="30" as="geometry" />
        </mxCell>
        <mxCell id="swFdeL_j1G5qAMvcgTBI-44" value="" style="endArrow=none;dashed=1;html=1;dashPattern=1 3;strokeWidth=2;rounded=0;entryX=0.5;entryY=1;entryDx=0;entryDy=0;" parent="1" target="swFdeL_j1G5qAMvcgTBI-22" edge="1">
          <mxGeometry width="50" height="50" relative="1" as="geometry">
            <mxPoint x="615" y="460" as="sourcePoint" />
            <mxPoint x="450" y="270" as="targetPoint" />
          </mxGeometry>
        </mxCell>
        <mxCell id="swFdeL_j1G5qAMvcgTBI-46" value="" style="endArrow=none;dashed=1;html=1;dashPattern=1 3;strokeWidth=2;rounded=0;entryX=0.5;entryY=1;entryDx=0;entryDy=0;" parent="1" target="swFdeL_j1G5qAMvcgTBI-26" edge="1">
          <mxGeometry width="50" height="50" relative="1" as="geometry">
            <mxPoint x="770" y="500" as="sourcePoint" />
            <mxPoint x="450" y="270" as="targetPoint" />
          </mxGeometry>
        </mxCell>
      </root>
    </mxGraphModel>
  </diagram>
</mxfile>
